**ABCDEFGHIJKLMNOPQRSTUVWXYZabcdefghijklmnopqrstuvwxyz**************************
**PARASOLID !"#$%&'()*+,-./:;<=>?@[\]^_`{|}~0123456789**************************
**PART1;
MC=x86;
MC_MODEL=x86 Family 6 Model 69 Stepping 1, GenuineIntel;
MC_ID=unknown;
OS=Windows_NT;
OS_RELEASE=unknown;
FRU=Parasolid Version 25.1, build 213, 10- 4-2013;
APPL=SolidWorks 2014-2013317;
SITE=;
USER=unknown;
FORMAT=text;
GUISE=transmit;
KEY=DMS_core-pins_160510_AA;
FILE=DMS_core-pins_160510_AA.x_t;
DATE=Tue May 10 09:45:13 2016;
**PART2;
SCH=SCH_2501213_25001;
USFLD_SIZE=0;
**PART3;
**END_OF_HEADER*****************************************************************
T51 : TRANSMIT FILE created by modeller version 250121323 SCH_2501213_25001_1300
6189 0 12 29 CCCCCCCCCCCCCDI5 owner1040 0 CCCCCCCCCA16 index_map_offset0 0 1 dA9
 index_map82 0 A17 node_id_index_map82 0 A20 schema_embedding_map82 0 A5 child12
 0 A14 lowest_node_id0 0 1 dZ1 463 0 2 0 0 0 0 1e3 1e-8 0 3 0 1 0 1 1 4 5 6 0 7
 8 0 0 0 0 0 0 0 70 11 CI9 list_type0 0 1 uI10 notransmit0 0 1 lCCCDCCDI12 finge
r_index0 0 1 dI12 finger_block1012 0 CZ2 0 4 T1 0 0 2 20 1 9 9 13 255 4 71 0 1 0
 10 0 0 11 0 52 255 5 254 0 12 13 0 0 +.03653 0 607332989477852e-32 -1 0 -166255
9511299895e-31 .001865 .707106781186552 .707106781186543 -1662559511299895e-31 0
 1 31 255 6 238 0 8 14 0 0 -.03603 0 599020191921353e-32 1 0 1662559511299895e-3
1 1662559511299895e-31 0 -1 .002365 19 8 CCCCCCCA5 owner12 0 Z7 75 0 1 11 0 15 V
0 16 255 8 235 0 ?16 0 17 6 0 0 1 17 255 16 0 18 16 16 0 19 8 0 0 +16 17 229 0 ?
20 8 21 14 0 0 1 17 20 0 22 20 20 0 23 17 0 0 +16 21 119 0 ?24 17 25 26 0 0 1 31
 14 232 0 17 26 6 0 +.03653 0 607332989477852e-32 1 0 1662559511299895e-31 16625
59511299895e-31 0 -1 .001865 31 26 151 0 21 27 14 0 +0 0 0 1 0 1662559511299895e
-31 1662559511299895e-31 0 -1 .0075 31 27 150 0 25 28 26 0 +.004 0 6650238045199
58e-33 1 0 1662559511299895e-31 1662559511299895e-31 0 -1 .0075 16 25 114 0 ?29
 21 30 27 0 0 1 31 28 149 0 30 31 27 0 +.004 0 665023804519959e-33 1 0 166255951
1299895e-31 1662559511299895e-31 0 -1 .005 16 30 109 0 ?32 25 33 28 0 0 1 31 31
 148 0 33 34 28 0 +.02146 0 3567852711249575e-33 1 0 1662559511299895e-31 166255
9511299895e-31 0 -1 .005 16 33 104 0 ?35 30 36 31 0 0 1 31 34 147 0 36 37 31 0 +
.02146 0 3567852711249575e-33 1 0 1662559511299895e-31 1662559511299895e-31 0 -1
 .00427 16 36 99 0 ?38 33 39 34 0 0 1 31 37 146 0 39 40 34 0 +.03151 0 523872502
010597e-32 1 0 1662559511299895e-31 1662559511299895e-31 0 -1 .002765 16 39 94 0
 ?41 36 42 37 0 0 1 31 40 145 0 42 43 37 0 +.03353 0 557456204138855e-32 1 0 166
2559511299895e-31 1662559511299895e-31 0 -1 .002765 16 42 89 0 ?44 39 45 40 0 0
 1 31 43 144 0 45 0 40 0 +.03353 0 557456204138855e-32 1 0 1662559511299895e-31
 1662559511299895e-31 0 -1 .002365 16 45 84 0 ?46 42 0 43 0 0 1 17 46 0 47 46 46
 0 48 45 0 0 +15 255 47 200 0 46 49 0 17 48 0 50 48 48 0 46 45 0 0 -15 50 91 0 4
8 51 0 14 255 51 92 52 ?49 53 54 4 55 +0 0 49 53 15 81 255 1 52 453 56 51 57 0 0
 58 59 14 49 87 58 ?60 51 18 4 61 +0 0 60 51 15 14 53 97 62 ?51 63 64 4 65 +0 0
 51 63 15 15 54 199 0 44 51 50 50 255 55 135 0 51 61 65 0 +.03353 0 -.002765 1 0
 1662559511299895e-31 1662559511299895e-31 0 -1 13 15 74 0 0 0 0 0 0 7 10 14 10
 127 66 ?67 0 68 4 13 +0 0 67 0 15 81 1 66 456 56 10 69 0 62 70 71 14 67 122 70
 ?72 10 73 4 74 +0 0 72 10 15 15 68 126 0 75 10 0 50 13 142 0 10 74 5 0 +-623459
81673746e-32 0 -1036539048230154e-49 -1 0 -1662559511299895e-31 -166255951129989
5e-31 0 1 51 255 74 141 0 67 76 13 0 +.03653 0 607332989477852e-32 1 0 166255951
1299895e-31 .0075 1662559511299895e-31 0 -1 50 76 140 0 72 77 74 0 +.004 0 -.007
5 1 0 1662559511299895e-31 1662559511299895e-31 0 -1 14 72 117 78 ?79 67 80 4 76
 +0 0 79 67 15 51 77 139 0 79 81 76 0 +.03653 0 607332989477852e-32 1 0 16625595
11299895e-31 .005 1662559511299895e-31 0 -1 14 79 112 82 ?83 72 84 4 77 +0 0 83
 72 15 50 81 138 0 83 85 77 0 +.02146 0 -.005 1 0 1662559511299895e-31 166255951
1299895e-31 0 -1 14 83 107 86 ?63 79 87 4 81 +0 0 63 79 15 52 85 137 0 63 65 81
 0 +.03151 0 523872502010597e-32 -1 0 -1662559511299895e-31 .002765 .14809984899
17078 .988972413532669 -1662559511299895e-31 0 1 14 63 102 88 ?53 83 89 4 85 +0
 0 53 83 15 51 65 136 0 53 55 85 0 +.03653 0 607332989477852e-32 1 0 16625595112
99895e-31 .002765 1662559511299895e-31 0 -1 81 1 88 461 56 63 90 0 86 91 92 15 8
9 197 0 38 63 93 17 38 0 89 38 38 0 94 36 0 0 +15 93 101 0 95 63 0 17 95 0 93 95
 95 0 41 39 0 0 -17 41 0 64 41 41 0 95 39 0 0 +15 64 198 0 41 53 96 15 96 96 0 9
7 53 0 17 97 0 96 97 97 0 44 42 0 0 -17 44 0 54 44 44 0 97 42 0 0 +17 94 0 98 94
 94 0 38 36 0 0 -15 98 106 0 94 83 0 80 255 1 56 99 100 9000 1 1 1 1 1 1 1 1 0 F
FFFTFTFFFFFFF1 81 1 90 423 101 63 0 88 102 103 104 81 1 86 460 56 83 102 0 82 88
 105 81 1 91 462 56 60 106 0 88 107 108 82 255 1 92 -1108869010 14 60 82 91 ?12
 49 22 4 109 +0 0 12 49 15 81 1 106 427 101 60 0 91 110 111 112 81 1 107 463 56
 12 111 0 91 0 113 82 1 108 -1111228305 14 12 247 107 ?0 60 114 4 5 +0 0 0 60 15
 81 1 111 428 101 12 0 107 106 0 115 82 1 113 -1096220561 80 1 101 0 116 8001 0
 0 0 0 3 5 0 0 0 FFFFTFTFFFFFFF2 83 255 3 115 .792156862745098 .819607843137255
 .933333333333333 79 255 15 116 SDL/TYSA_COLOUR15 114 248 0 19 12 117 17 19 0 11
4 19 19 0 16 8 0 0 -15 117 249 0 23 12 0 17 23 0 117 23 23 0 20 17 0 0 -81 1 110
 426 101 49 0 58 57 106 118 83 3 112 .792156862745098 .819607843137255 .93333333
3333333 81 1 58 454 56 49 110 0 52 62 119 81 1 57 425 101 51 0 52 103 110 120 83
 3 118 .792156862745098 .819607843137255 .933333333333333 81 1 103 424 101 53 0
 62 90 57 121 83 3 120 .792156862745098 .819607843137255 .933333333333333 81 1 6
2 455 56 53 103 0 58 66 122 83 3 121 .792156862745098 .819607843137255 .93333333
3333333 82 1 122 -1109458834 82 1 119 -1110638481 15 22 230 0 20 60 0 50 109 133
 0 60 0 61 0 +.03653 0 607332989477852e-32 1 0 1662559511299895e-31 166255951129
9895e-31 0 -1 51 61 134 0 49 109 55 0 +.03653 0 607332989477852e-32 1 0 16625595
11299895e-31 .002365 1662559511299895e-31 0 -1 81 1 102 422 101 83 0 86 123 90 1
24 81 1 82 459 56 79 123 0 78 86 125 82 1 105 -1108279186 81 1 123 421 101 79 0
 82 126 102 127 81 1 78 458 56 72 126 0 70 82 128 82 1 125 -1107689362 81 1 126
 420 101 72 0 78 129 123 130 81 1 70 457 56 67 129 0 66 78 131 82 1 128 -1107099
538 81 1 129 419 101 67 0 70 69 126 132 82 1 131 -1106509714 81 1 69 418 101 10
 0 66 0 129 133 83 3 132 .792156862745098 .819607843137255 .933333333333333 83 3
 133 .792156862745098 .819607843137255 .933333333333333 83 3 130 .79215686274509
8 .819607843137255 .933333333333333 83 3 127 .792156862745098 .819607843137255 .
933333333333333 83 3 124 .792156862745098 .819607843137255 .933333333333333 83 3
 104 .792156862745098 .819607843137255 .933333333333333 79 14 100 SWEntUnchanged
15 87 196 0 35 83 98 17 35 0 87 35 35 0 134 33 0 0 +17 134 0 135 134 134 0 35 33
 0 0 -15 135 111 0 134 79 0 15 84 195 0 32 79 135 17 32 0 84 32 32 0 136 30 0 0
 +17 136 0 137 136 136 0 32 30 0 0 -15 137 116 0 136 72 0 15 80 194 0 29 72 137
 17 29 0 80 29 29 0 138 25 0 0 +17 138 0 139 138 138 0 29 25 0 0 -15 139 121 0 1
38 67 0 17 75 0 68 75 75 0 24 21 0 0 -17 24 0 73 24 24 0 75 21 0 0 +15 73 193 0
 24 67 139 82 1 71 -1105919890 15 18 236 0 16 49 47 82 1 59 -1110048658 19 11 70
 0 1 0 7 4 S0 74 4 CI16 index_map_offset0 0 1 dCCZ20 9 2 0 0 107 111 0 0 0 0 0 0
 0 0 0 0 0 0 0 0 0 0 0 0 1 0 
